<?xml version="1.0" encoding="UTF-8" standalone="no"?>
<!DOCTYPE svg PUBLIC "-//W3C//DTD SVG 1.1//EN"
 "http://www.w3.org/Graphics/SVG/1.1/DTD/svg11.dtd">
<!-- Generated by graphviz version 13.1.2 (0)
 -->
<!-- Title: G Pages: 1 -->
<svg width="1024pt" height="788pt"
 viewBox="0.00 0.00 1024.00 788.00" xmlns="http://www.w3.org/2000/svg" xmlns:xlink="http://www.w3.org/1999/xlink">
<g id="graph0" class="graph" transform="scale(1 1) rotate(0) translate(4 784)">
<title>G</title>
<polygon fill="white" stroke="none" points="-4,4 -4,-784 1020,-784 1020,4 -4,4"/>
<g id="clust1" class="cluster">
<title>cluster_90976588</title>
<polygon fill="none" stroke="black" stroke-dasharray="1,5" points="346.75,-587 346.75,-772 461.25,-772 461.25,-587 346.75,-587"/>
<text xml:space="preserve" text-anchor="middle" x="404" y="-754.7" font-family="Times,serif" font-size="14.00">File: estop</text>
</g>
<g id="clust2" class="cluster">
<title>cluster_f594d4cb</title>
<polygon fill="none" stroke="black" stroke-dasharray="1,5" points="313,-394 313,-579 495,-579 495,-394 313,-394"/>
<text xml:space="preserve" text-anchor="middle" x="404" y="-561.7" font-family="Times,serif" font-size="14.00">File: geometry</text>
</g>
<g id="clust3" class="cluster">
<title>cluster_42c4a137</title>
<polygon fill="none" stroke="black" stroke-dasharray="1,5" points="8,-394 8,-471 122.5,-471 122.5,-394 8,-394"/>
<text xml:space="preserve" text-anchor="middle" x="65.25" y="-453.7" font-family="Times,serif" font-size="14.00">File: pytrim</text>
</g>
<g id="clust4" class="cluster">
<title>cluster_53191ddc</title>
<polygon fill="none" stroke="black" stroke-dasharray="1,5" points="339.62,-201 339.62,-386 1008,-386 1008,-201 339.62,-201"/>
<text xml:space="preserve" text-anchor="middle" x="673.81" y="-368.7" font-family="Times,serif" font-size="14.00">File: scatter</text>
</g>
<g id="clust5" class="cluster">
<title>cluster_349b5837</title>
<polygon fill="none" stroke="black" stroke-dasharray="1,5" points="302.5,-8 302.5,-193 505.5,-193 505.5,-8 302.5,-8"/>
<text xml:space="preserve" text-anchor="middle" x="404" y="-175.7" font-family="Times,serif" font-size="14.00">File: select_recoil</text>
</g>
<g id="clust6" class="cluster">
<title>cluster_771a8038</title>
<polygon fill="none" stroke="black" stroke-dasharray="1,5" points="142.5,-313 142.5,-498 282.5,-498 282.5,-313 142.5,-313"/>
<text xml:space="preserve" text-anchor="middle" x="212.5" y="-480.7" font-family="Times,serif" font-size="14.00">File: trajectory</text>
</g>
<!-- node_5ca73b28 -->
<g id="node1" class="node">
<title>node_5ca73b28</title>
<path fill="#966f33" stroke="black" d="M441.25,-631C441.25,-631 366.75,-631 366.75,-631 360.75,-631 354.75,-625 354.75,-619 354.75,-619 354.75,-607 354.75,-607 354.75,-601 360.75,-595 366.75,-595 366.75,-595 441.25,-595 441.25,-595 447.25,-595 453.25,-601 453.25,-607 453.25,-607 453.25,-619 453.25,-619 453.25,-625 447.25,-631 441.25,-631"/>
<text xml:space="preserve" text-anchor="middle" x="404" y="-608.33" font-family="Times,serif" font-size="14.00">0: (global)()</text>
</g>
<!-- node_36478966 -->
<g id="node2" class="node">
<title>node_36478966</title>
<path fill="#6db33f" stroke="black" d="M436.75,-685C436.75,-685 371.25,-685 371.25,-685 365.25,-685 359.25,-679 359.25,-673 359.25,-673 359.25,-661 359.25,-661 359.25,-655 365.25,-649 371.25,-649 371.25,-649 436.75,-649 436.75,-649 442.75,-649 448.75,-655 448.75,-661 448.75,-661 448.75,-673 448.75,-673 448.75,-679 442.75,-685 436.75,-685"/>
<text xml:space="preserve" text-anchor="middle" x="404" y="-662.33" font-family="Times,serif" font-size="14.00">34: eloss()</text>
</g>
<!-- node_75f1916a -->
<g id="node3" class="node">
<title>node_75f1916a</title>
<path fill="#6db33f" stroke="black" d="M438.62,-739C438.62,-739 369.38,-739 369.38,-739 363.38,-739 357.38,-733 357.38,-727 357.38,-727 357.38,-715 357.38,-715 357.38,-709 363.38,-703 369.38,-703 369.38,-703 438.62,-703 438.62,-703 444.62,-703 450.62,-709 450.62,-715 450.62,-715 450.62,-727 450.62,-727 450.62,-733 444.62,-739 438.62,-739"/>
<text xml:space="preserve" text-anchor="middle" x="404" y="-716.33" font-family="Times,serif" font-size="14.00">14: setup()</text>
</g>
<!-- node_7d9b1685 -->
<g id="node4" class="node">
<title>node_7d9b1685</title>
<path fill="#966f33" stroke="black" d="M441.25,-438C441.25,-438 366.75,-438 366.75,-438 360.75,-438 354.75,-432 354.75,-426 354.75,-426 354.75,-414 354.75,-414 354.75,-408 360.75,-402 366.75,-402 366.75,-402 441.25,-402 441.25,-402 447.25,-402 453.25,-408 453.25,-414 453.25,-414 453.25,-426 453.25,-426 453.25,-432 447.25,-438 441.25,-438"/>
<text xml:space="preserve" text-anchor="middle" x="404" y="-415.32" font-family="Times,serif" font-size="14.00">0: (global)()</text>
</g>
<!-- node_b9d7519e -->
<g id="node5" class="node">
<title>node_b9d7519e</title>
<path fill="#6db33f" stroke="black" d="M475,-492C475,-492 333,-492 333,-492 327,-492 321,-486 321,-480 321,-480 321,-468 321,-468 321,-462 327,-456 333,-456 333,-456 475,-456 475,-456 481,-456 487,-462 487,-468 487,-468 487,-480 487,-480 487,-486 481,-492 475,-492"/>
<text xml:space="preserve" text-anchor="middle" x="404" y="-469.32" font-family="Times,serif" font-size="14.00">28: is_inside_target()</text>
</g>
<!-- node_42b6bdb6 -->
<g id="node6" class="node">
<title>node_42b6bdb6</title>
<path fill="#6db33f" stroke="black" d="M438.62,-546C438.62,-546 369.38,-546 369.38,-546 363.38,-546 357.38,-540 357.38,-534 357.38,-534 357.38,-522 357.38,-522 357.38,-516 363.38,-510 369.38,-510 369.38,-510 438.62,-510 438.62,-510 444.62,-510 450.62,-516 450.62,-522 450.62,-522 450.62,-534 450.62,-534 450.62,-540 444.62,-546 438.62,-546"/>
<text xml:space="preserve" text-anchor="middle" x="404" y="-523.33" font-family="Times,serif" font-size="14.00">12: setup()</text>
</g>
<!-- node_705d9f3a -->
<g id="node7" class="node">
<title>node_705d9f3a</title>
<path fill="#966f33" stroke="black" d="M102.5,-438C102.5,-438 28,-438 28,-438 22,-438 16,-432 16,-426 16,-426 16,-414 16,-414 16,-408 22,-402 28,-402 28,-402 102.5,-402 102.5,-402 108.5,-402 114.5,-408 114.5,-414 114.5,-414 114.5,-426 114.5,-426 114.5,-432 108.5,-438 102.5,-438"/>
<text xml:space="preserve" text-anchor="middle" x="65.25" y="-415.32" font-family="Times,serif" font-size="14.00">0: (global)()</text>
</g>
<!-- node_705d9f3a&#45;&gt;node_75f1916a -->
<g id="edge1" class="edge">
<title>node_705d9f3a&#45;&gt;node_75f1916a</title>
<path fill="none" stroke="#56b4e9" stroke-width="2" d="M49,-438.38C49,-503.73 49,-721 49,-721 49,-721 344.2,-721 344.2,-721"/>
<polygon fill="#56b4e9" stroke="#56b4e9" stroke-width="2" points="344.2,-724.5 354.2,-721 344.2,-717.5 344.2,-724.5"/>
</g>
<!-- node_705d9f3a&#45;&gt;node_42b6bdb6 -->
<g id="edge2" class="edge">
<title>node_705d9f3a&#45;&gt;node_42b6bdb6</title>
<path fill="none" stroke="#56b4e9" stroke-width="2" d="M82,-438.32C82,-469.13 82,-528 82,-528 82,-528 344.15,-528 344.15,-528"/>
<polygon fill="#56b4e9" stroke="#56b4e9" stroke-width="2" points="344.15,-531.5 354.15,-528 344.15,-524.5 344.15,-531.5"/>
</g>
<!-- node_d13dc66b -->
<g id="node13" class="node">
<title>node_d13dc66b</title>
<path fill="#6db33f" stroke="black" d="M438.62,-299C438.62,-299 369.38,-299 369.38,-299 363.38,-299 357.38,-293 357.38,-287 357.38,-287 357.38,-275 357.38,-275 357.38,-269 363.38,-263 369.38,-263 369.38,-263 438.62,-263 438.62,-263 444.62,-263 450.62,-269 450.62,-275 450.62,-275 450.62,-287 450.62,-287 450.62,-293 444.62,-299 438.62,-299"/>
<text xml:space="preserve" text-anchor="middle" x="404" y="-276.32" font-family="Times,serif" font-size="14.00">18: setup()</text>
</g>
<!-- node_705d9f3a&#45;&gt;node_d13dc66b -->
<g id="edge3" class="edge">
<title>node_705d9f3a&#45;&gt;node_d13dc66b</title>
<path fill="none" stroke="#56b4e9" stroke-width="2" d="M82,-401.54C82,-363.73 82,-281 82,-281 82,-281 344.15,-281 344.15,-281"/>
<polygon fill="#56b4e9" stroke="#56b4e9" stroke-width="2" points="344.15,-284.5 354.15,-281 344.15,-277.5 344.15,-284.5"/>
</g>
<!-- node_1aa75bc7 -->
<g id="node16" class="node">
<title>node_1aa75bc7</title>
<path fill="#6db33f" stroke="black" d="M438.62,-106C438.62,-106 369.38,-106 369.38,-106 363.38,-106 357.38,-100 357.38,-94 357.38,-94 357.38,-82 357.38,-82 357.38,-76 363.38,-70 369.38,-70 369.38,-70 438.62,-70 438.62,-70 444.62,-70 450.62,-76 450.62,-82 450.62,-82 450.62,-94 450.62,-94 450.62,-100 444.62,-106 438.62,-106"/>
<text xml:space="preserve" text-anchor="middle" x="404" y="-83.33" font-family="Times,serif" font-size="14.00">16: setup()</text>
</g>
<!-- node_705d9f3a&#45;&gt;node_1aa75bc7 -->
<g id="edge4" class="edge">
<title>node_705d9f3a&#45;&gt;node_1aa75bc7</title>
<path fill="none" stroke="#56b4e9" stroke-width="2" d="M49,-401.68C49,-332.08 49,-88 49,-88 49,-88 344.2,-88 344.2,-88"/>
<polygon fill="#56b4e9" stroke="#56b4e9" stroke-width="2" points="344.2,-91.5 354.2,-88 344.2,-84.5 344.2,-91.5"/>
</g>
<!-- node_6d9a7c13 -->
<g id="node18" class="node">
<title>node_6d9a7c13</title>
<path fill="#6db33f" stroke="black" d="M247.12,-411C247.12,-411 177.88,-411 177.88,-411 171.88,-411 165.88,-405 165.88,-399 165.88,-399 165.88,-387 165.88,-387 165.88,-381 171.88,-375 177.88,-375 177.88,-375 247.12,-375 247.12,-375 253.12,-375 259.12,-381 259.12,-387 259.12,-387 259.12,-399 259.12,-399 259.12,-405 253.12,-411 247.12,-411"/>
<text xml:space="preserve" text-anchor="middle" x="212.5" y="-388.32" font-family="Times,serif" font-size="14.00">12: setup()</text>
</g>
<!-- node_705d9f3a&#45;&gt;node_6d9a7c13 -->
<g id="edge5" class="edge">
<title>node_705d9f3a&#45;&gt;node_6d9a7c13</title>
<path fill="none" stroke="#56b4e9" stroke-width="2" d="M114.69,-406.5C114.69,-406.5 152.4,-406.5 152.4,-406.5"/>
<polygon fill="#56b4e9" stroke="#56b4e9" stroke-width="2" points="152.4,-410 162.4,-406.5 152.4,-403 152.4,-410"/>
</g>
<!-- node_f45b4908 -->
<g id="node19" class="node">
<title>node_f45b4908</title>
<path fill="#cccccc" stroke="black" d="M262.5,-465C262.5,-465 162.5,-465 162.5,-465 156.5,-465 150.5,-459 150.5,-453 150.5,-453 150.5,-441 150.5,-441 150.5,-435 156.5,-429 162.5,-429 162.5,-429 262.5,-429 262.5,-429 268.5,-429 274.5,-435 274.5,-441 274.5,-441 274.5,-453 274.5,-453 274.5,-459 268.5,-465 262.5,-465"/>
<text xml:space="preserve" text-anchor="middle" x="212.5" y="-442.32" font-family="Times,serif" font-size="14.00">26: trajectory()</text>
</g>
<!-- node_705d9f3a&#45;&gt;node_f45b4908 -->
<g id="edge6" class="edge">
<title>node_705d9f3a&#45;&gt;node_f45b4908</title>
<path fill="none" stroke="#56b4e9" stroke-width="2" d="M114.69,-433.5C114.69,-433.5 137.09,-433.5 137.09,-433.5"/>
<polygon fill="#56b4e9" stroke="#56b4e9" stroke-width="2" points="137.09,-437 147.09,-433.5 137.09,-430 137.09,-437"/>
</g>
<!-- node_1f212cfd -->
<g id="node8" class="node">
<title>node_1f212cfd</title>
<path fill="#966f33" stroke="black" d="M441.25,-245C441.25,-245 366.75,-245 366.75,-245 360.75,-245 354.75,-239 354.75,-233 354.75,-233 354.75,-221 354.75,-221 354.75,-215 360.75,-209 366.75,-209 366.75,-209 441.25,-209 441.25,-209 447.25,-209 453.25,-215 453.25,-221 453.25,-221 453.25,-233 453.25,-233 453.25,-239 447.25,-245 441.25,-245"/>
<text xml:space="preserve" text-anchor="middle" x="404" y="-222.32" font-family="Times,serif" font-size="14.00">0: (global)()</text>
</g>
<!-- node_37cbc540 -->
<g id="node9" class="node">
<title>node_37cbc540</title>
<path fill="#6db33f" stroke="black" d="M988,-334C988,-334 882,-334 882,-334 876,-334 870,-328 870,-322 870,-322 870,-310 870,-310 870,-304 876,-298 882,-298 882,-298 988,-298 988,-298 994,-298 1000,-304 1000,-310 1000,-310 1000,-322 1000,-322 1000,-328 994,-334 988,-334"/>
<text xml:space="preserve" text-anchor="middle" x="935" y="-311.32" font-family="Times,serif" font-size="14.00">56: ZBLscreen()</text>
</g>
<!-- node_ecad79e5 -->
<g id="node10" class="node">
<title>node_ecad79e5</title>
<path fill="#cccccc" stroke="black" d="M822,-353C822,-353 686.75,-353 686.75,-353 680.75,-353 674.75,-347 674.75,-341 674.75,-341 674.75,-329 674.75,-329 674.75,-323 680.75,-317 686.75,-317 686.75,-317 822,-317 822,-317 828,-317 834,-323 834,-329 834,-329 834,-341 834,-341 834,-347 828,-353 822,-353"/>
<text xml:space="preserve" text-anchor="middle" x="754.38" y="-330.32" font-family="Times,serif" font-size="14.00">85: estimate_apsis()</text>
</g>
<!-- node_ecad79e5&#45;&gt;node_37cbc540 -->
<g id="edge7" class="edge">
<title>node_ecad79e5&#45;&gt;node_37cbc540</title>
<path fill="none" stroke="#0072b2" stroke-width="2" d="M834.39,-325.5C834.39,-325.5 856.64,-325.5 856.64,-325.5"/>
<polygon fill="#0072b2" stroke="#0072b2" stroke-width="2" points="856.64,-329 866.64,-325.5 856.64,-322 856.64,-329"/>
</g>
<!-- node_fc0aff38 -->
<g id="node11" class="node">
<title>node_fc0aff38</title>
<path fill="#cccccc" stroke="black" d="M626.75,-353C626.75,-353 545.5,-353 545.5,-353 539.5,-353 533.5,-347 533.5,-341 533.5,-341 533.5,-329 533.5,-329 533.5,-323 539.5,-317 545.5,-317 545.5,-317 626.75,-317 626.75,-317 632.75,-317 638.75,-323 638.75,-329 638.75,-329 638.75,-341 638.75,-341 638.75,-347 632.75,-353 626.75,-353"/>
<text xml:space="preserve" text-anchor="middle" x="586.12" y="-330.32" font-family="Times,serif" font-size="14.00">128: magic()</text>
</g>
<!-- node_fc0aff38&#45;&gt;node_37cbc540 -->
<g id="edge8" class="edge">
<title>node_fc0aff38&#45;&gt;node_37cbc540</title>
<path fill="none" stroke="#000000" stroke-width="2" d="M586,-316.54C586,-311.8 586,-308 586,-308 586,-308 856.74,-308 856.74,-308"/>
<polygon fill="#000000" stroke="#000000" stroke-width="2" points="856.74,-311.5 866.74,-308 856.74,-304.5 856.74,-311.5"/>
</g>
<!-- node_fc0aff38&#45;&gt;node_ecad79e5 -->
<g id="edge9" class="edge">
<title>node_fc0aff38&#45;&gt;node_ecad79e5</title>
<path fill="none" stroke="#000000" stroke-width="2" d="M638.9,-335C638.9,-335 661.34,-335 661.34,-335"/>
<polygon fill="#000000" stroke="#000000" stroke-width="2" points="661.34,-338.5 671.34,-335 661.34,-331.5 661.34,-338.5"/>
</g>
<!-- node_43b5751e -->
<g id="node12" class="node">
<title>node_43b5751e</title>
<path fill="#cccccc" stroke="black" d="M448.38,-353C448.38,-353 359.62,-353 359.62,-353 353.62,-353 347.62,-347 347.62,-341 347.62,-341 347.62,-329 347.62,-329 347.62,-323 353.62,-317 359.62,-317 359.62,-317 448.38,-317 448.38,-317 454.38,-317 460.38,-323 460.38,-329 460.38,-329 460.38,-341 460.38,-341 460.38,-347 454.38,-353 448.38,-353"/>
<text xml:space="preserve" text-anchor="middle" x="404" y="-330.32" font-family="Times,serif" font-size="14.00">160: scatter()</text>
</g>
<!-- node_43b5751e&#45;&gt;node_fc0aff38 -->
<g id="edge10" class="edge">
<title>node_43b5751e&#45;&gt;node_fc0aff38</title>
<path fill="none" stroke="#d55e00" stroke-width="2" d="M460.63,-335C460.63,-335 520.23,-335 520.23,-335"/>
<polygon fill="#d55e00" stroke="#d55e00" stroke-width="2" points="520.23,-338.5 530.23,-335 520.23,-331.5 520.23,-338.5"/>
</g>
<!-- node_aae23c8e -->
<g id="node14" class="node">
<title>node_aae23c8e</title>
<path fill="#966f33" stroke="black" d="M441.25,-52C441.25,-52 366.75,-52 366.75,-52 360.75,-52 354.75,-46 354.75,-40 354.75,-40 354.75,-28 354.75,-28 354.75,-22 360.75,-16 366.75,-16 366.75,-16 441.25,-16 441.25,-16 447.25,-16 453.25,-22 453.25,-28 453.25,-28 453.25,-40 453.25,-40 453.25,-46 447.25,-52 441.25,-52"/>
<text xml:space="preserve" text-anchor="middle" x="404" y="-29.32" font-family="Times,serif" font-size="14.00">0: (global)()</text>
</g>
<!-- node_e8411efb -->
<g id="node15" class="node">
<title>node_e8411efb</title>
<path fill="#6db33f" stroke="black" d="M485.5,-160C485.5,-160 322.5,-160 322.5,-160 316.5,-160 310.5,-154 310.5,-148 310.5,-148 310.5,-136 310.5,-136 310.5,-130 316.5,-124 322.5,-124 322.5,-124 485.5,-124 485.5,-124 491.5,-124 497.5,-130 497.5,-136 497.5,-136 497.5,-148 497.5,-148 497.5,-154 491.5,-160 485.5,-160"/>
<text xml:space="preserve" text-anchor="middle" x="404" y="-137.32" font-family="Times,serif" font-size="14.00">31: get_recoil_position()</text>
</g>
<!-- node_445c9e05 -->
<g id="node17" class="node">
<title>node_445c9e05</title>
<path fill="#966f33" stroke="black" d="M249.75,-357C249.75,-357 175.25,-357 175.25,-357 169.25,-357 163.25,-351 163.25,-345 163.25,-345 163.25,-333 163.25,-333 163.25,-327 169.25,-321 175.25,-321 175.25,-321 249.75,-321 249.75,-321 255.75,-321 261.75,-327 261.75,-333 261.75,-333 261.75,-345 261.75,-345 261.75,-351 255.75,-357 249.75,-357"/>
<text xml:space="preserve" text-anchor="middle" x="212.5" y="-334.32" font-family="Times,serif" font-size="14.00">0: (global)()</text>
</g>
<!-- node_f45b4908&#45;&gt;node_36478966 -->
<g id="edge11" class="edge">
<title>node_f45b4908&#45;&gt;node_36478966</title>
<path fill="none" stroke="#000000" stroke-width="2" d="M212,-465.38C212,-518.25 212,-667 212,-667 212,-667 345.96,-667 345.96,-667"/>
<polygon fill="#000000" stroke="#000000" stroke-width="2" points="345.96,-670.5 355.96,-667 345.96,-663.5 345.96,-670.5"/>
</g>
<!-- node_f45b4908&#45;&gt;node_b9d7519e -->
<g id="edge12" class="edge">
<title>node_f45b4908&#45;&gt;node_b9d7519e</title>
<path fill="none" stroke="#000000" stroke-width="2" d="M274.94,-460.5C274.94,-460.5 307.72,-460.5 307.72,-460.5"/>
<polygon fill="#000000" stroke="#000000" stroke-width="2" points="307.72,-464 317.72,-460.5 307.72,-457 307.72,-464"/>
</g>
<!-- node_f45b4908&#45;&gt;node_43b5751e -->
<g id="edge13" class="edge">
<title>node_f45b4908&#45;&gt;node_43b5751e</title>
<path fill="none" stroke="#000000" stroke-width="2" d="M274.86,-435C311.62,-435 351,-435 351,-435 351,-435 351,-366.37 351,-366.37"/>
<polygon fill="#000000" stroke="#000000" stroke-width="2" points="354.5,-366.37 351,-356.37 347.5,-366.37 354.5,-366.37"/>
</g>
<!-- node_f45b4908&#45;&gt;node_e8411efb -->
<g id="edge14" class="edge">
<title>node_f45b4908&#45;&gt;node_e8411efb</title>
<path fill="none" stroke="#000000" stroke-width="2" d="M274.8,-432C296.72,-432 316,-432 316,-432 316,-432 316,-173.17 316,-173.17"/>
<polygon fill="#000000" stroke="#000000" stroke-width="2" points="319.5,-173.17 316,-163.17 312.5,-173.17 319.5,-173.17"/>
</g>
</g>
</svg>
