
<svg class="callgraph" xmlns="http://www.w3.org/2000/svg" xmlns:xlink="http://www.w3.org/1999/xlink" viewBox="0 0 1121 639">
  <style>:root{--background-color: #f5fffa;--selected-color: #4fe1f4;--edge-color: #548f9e;--edge-incoming-color: #698b69;--edge-outgoing-color: #008acd;--edge-incoming-outgoing-color: black;--cluster-label-bg-color: #e8eaed;--node-bg-color: #f4f5f1;--symbol-default-bg-color: var(--node-bg-color);--symbol-default-border-color: #889f4e;--symbol-default-text-color: #363636;--interface-bg-color: #fff8dc;--interface-border-color: #a69348;--module-bg-color: #ffebcd;--module-border-color: #a67e43;--constructor-bg-color: #ffdab9;--constructor-border-color: #a66e3c;--method-bg-color: #fff8c5;--method-border-color: #d4a72c;--function-bg-color: #bafbd0;--function-border-color: #4ac26b;--struct-bg-color: #ddf4ff;--struct-border-color: #54aeff;--type-icon-color: #8969da;--property-icon-color: #5f9348}.callgraph{--bold-border: 3.2;width:100%;height:100%;outline:none;cursor:default;-webkit-user-select:none;user-select:none}.callgraph>#graph0>polygon:first-of-type{fill:var(--background-color)}.callgraph>#graph0>#faded-group>:where(.node,.cluster){opacity:.2}.callgraph>#graph0>#faded-group>.edge{opacity:.05}.callgraph .edge>path:not(.hover-path){stroke:var(--edge-color);stroke-width:3}.callgraph .edge>polygon{stroke:var(--edge-color);fill:var(--edge-color)}.callgraph .edge>path.hover-path{stroke:transparent;stroke-width:15}.callgraph .edge.impl>path{stroke-dasharray:8,3}.callgraph .edge.impl>polygon{stroke-width:2;fill:none!important}.callgraph .edge:hover{--edge-color: var(--selected-color)}.callgraph .edge.incoming{--edge-color: var(--edge-incoming-color)}.callgraph .edge.outgoing{--edge-color: var(--edge-outgoing-color)}.callgraph .edge.incoming.outgoing{--edge-color: var(--edge-incoming-outgoing-color)}.callgraph .cluster polygon{stroke-width:1.6}.callgraph .cluster .cluster-label{cursor:pointer;fill:var(--cluster-label-bg-color);rx:18px}.callgraph .cluster text{pointer-events:none}.callgraph .cluster.selected{--cluster-label-bg-color: color-mix(in srgb, var(--selected-color) 30%, transparent)}.callgraph .cluster.selected polygon{stroke-width:var(--bold-border);stroke:var(--selected-color)}.callgraph .node>rect{rx:20px;fill:var(--node-bg-color);filter:url(#shadow)}.callgraph .node.selected>rect{stroke:var(--selected-color);stroke-width:var(--bold-border)}.callgraph .node>.title{cursor:pointer}.callgraph .node>.title>text{font-weight:700}.callgraph .cell{--bg-color: var(--symbol-default-bg-color);--border-color: var(--symbol-default-border-color);--border-width: 1.6}.callgraph .cell>rect{rx:10px;fill:var(--bg-color);stroke:var(--border-color);stroke-width:var(--border-width)}.callgraph .cell>text{fill:var(--symbold-default-text-color)}.callgraph .cell:where(.highlight,.selected,:not(:has(>.cell:hover)):hover){--border-width: var(--bold-border)}.callgraph .cell.highlight>rect{stroke:url(#highlightGradient)}.callgraph .cell.selected>rect{filter:drop-shadow(3px 3px 6px var(--border-color))}.callgraph .cell.interface{--bg-color: var(--interface-bg-color);--border-color: var(--interface-border-color)}.callgraph .cell.interface>rect{stroke-dasharray:7,5}.callgraph .cell.module{--bg-color: var(--module-bg-color);--border-color: var(--module-border-color)}.callgraph .cell.constructor{--bg-color: var(--constructor-bg-color);--border-color: var(--constructor-border-color)}.callgraph .cell.function{--bg-color: var(--function-bg-color);--border-color: var(--function-border-color)}.callgraph .cell.method{--bg-color: var(--method-bg-color);--border-color: var(--method-border-color)}.callgraph .cell:where(.class,.struct,.enum){--bg-color: var(--struct-bg-color);--border-color: var(--struct-border-color)}.callgraph .cell:where(.class,.struct,.enum)>rect{rx:unset}.callgraph .cell:where(.class,.struct,.enum)>text{transform:translateY(1.5px)}.callgraph .cell:where(.class,.struct,.enum)>text:first-of-type{fill:var(--type-icon-color)}.callgraph .cell:where(.field,.property)>rect{rx:unset}.callgraph .cell:where(.field,.property)>text:first-of-type{font-style:italic;fill:var(--property-icon-color)}
</style>
  
<g id="graph0" class="graph" transform="translate(0 639)">
<polygon fill="white" stroke="none" points="-4,4 -4,-635 1117,-635 1117,4 -4,4"></polygon>
<g id="clust1" class="cluster">

<polygon fill="none" stroke="black" points="8,-8 8,-623 1105,-623 1105,-8 8,-8"></polygon>
<rect x="495.1700134277344" y="-619" width="122.66000366210938" height="35.20001220703125" class="cluster-label"></rect>
<text text-anchor="start" x="503.17" y="-596.6" font-family="Arial" font-size="16.00">CyTRIM/pytrim</text>
</g>
<!-- 1 -->
<g id="1" class="node" data-path="/home/xazker/Desktop/CyTRIM/pytrim/trajectory.py">

<rect x="425.5" y="-395.70001220703125" width="262" height="99.4000244140625"></rect>
<g id="1_0" class="title">
<text text-anchor="start" x="459.59" y="-363.3" font-family="Arial" font-size="16.00"> &#160;&#160;&#160;&#160;&#160;&#160;&#160;&#160;&#160;&#160;&#160;trajectory.py &#160;&#160;&#160;&#160;&#160;&#160;&#160;&#160;&#160;&#160;&#160;</text>

</g>
<g id="1:26_4" data-kind="12" class="cell function highlight">
<rect x="441.5" y="-344.5" width="230" height="27.20001220703125"></rect>
<text text-anchor="start" x="523.6" y="-326.1" font-family="Arial" font-size="16.00">trajectory</text>

</g>
</g>
<!-- 6 -->
<g id="6" class="node" data-path="/home/xazker/Desktop/CyTRIM/pytrim/scatter.py">

<rect x="835" y="-220.5" width="262" height="205"></rect>
<g id="6_1" class="title">
<text text-anchor="start" x="877.98" y="-188.1" font-family="Arial" font-size="16.00"> &#160;&#160;&#160;&#160;&#160;&#160;&#160;&#160;&#160;&#160;&#160;scatter.py &#160;&#160;&#160;&#160;&#160;&#160;&#160;&#160;&#160;&#160;&#160;</text>

</g>
<g id="6:55_4" data-kind="12" class="cell function">
<rect x="851" y="-169.3000030517578" width="230" height="27.199996948242188"></rect>
<text text-anchor="start" x="927.32" y="-150.9" font-family="Arial" font-size="16.00">ZBLscreen</text>

</g>
<g id="6:84_4" data-kind="12" class="cell function">
<rect x="851" y="-134.10000610351562" width="230" height="27.20000457763672"></rect>
<text text-anchor="start" x="912.64" y="-115.7" font-family="Arial" font-size="16.00">estimate_apsis</text>

</g>
<g id="6:127_4" data-kind="12" class="cell function">
<rect x="851" y="-98.9000015258789" width="230" height="27.20000457763672"></rect>
<text text-anchor="start" x="944.66" y="-80.5" font-family="Arial" font-size="16.00">magic</text>

</g>
<g id="6:159_4" data-kind="12" class="cell function">
<rect x="851" y="-63.70000076293945" width="230" height="27.200000762939453"></rect>
<text text-anchor="start" x="941.99" y="-45.3" font-family="Arial" font-size="16.00">scatter</text>

</g>
</g>
<!-- 1&#45;&gt;6 -->
<g id="1:26_4-6:159_4" class="edge" data-from="1:26_4" data-to="6:159_4">

<path fill="none" stroke="black" d="M672.5,-330.9C814.38,-330.9 711.15,-71.61 833.88,-51.35"></path>
<polygon fill="black" stroke="black" points="833.94,-56.61 848.49,-50.22 833.13,-46.14 833.94,-56.61"></polygon>
<text text-anchor="middle" x="761.25" y="-203.12" font-family="Times,serif" font-size="14.00"> </text>
<path fill="none" stroke="black" d="M672.5,-330.9C814.38,-330.9 711.15,-71.61 833.88,-51.35" class="hover-path"></path></g>
<!-- 5 -->
<g id="5" class="node" data-path="/home/xazker/Desktop/CyTRIM/pytrim/geometry.py">

<rect x="835" y="-337.70001220703125" width="262" height="99.40000915527344"></rect>
<g id="5_2" class="title">
<text text-anchor="start" x="868.64" y="-305.3" font-family="Arial" font-size="16.00"> &#160;&#160;&#160;&#160;&#160;&#160;&#160;&#160;&#160;&#160;&#160;geometry.py &#160;&#160;&#160;&#160;&#160;&#160;&#160;&#160;&#160;&#160;&#160;</text>

</g>
<g id="5:27_4" data-kind="12" class="cell function">
<rect x="851" y="-286.5" width="230" height="27.20001220703125"></rect>
<text text-anchor="start" x="909.96" y="-268.1" font-family="Arial" font-size="16.00">is_inside_target</text>

</g>
</g>
<!-- 1&#45;&gt;5 -->
<g id="1:26_4-5:27_4" class="edge" data-from="1:26_4" data-to="5:27_4">

<path fill="none" stroke="black" d="M672.5,-330.9C749.82,-330.9 765.1,-280.56 833.94,-273.68"></path>
<polygon fill="black" stroke="black" points="833.76,-278.94 848.49,-272.97 833.25,-268.45 833.76,-278.94"></polygon>
<text text-anchor="middle" x="761.25" y="-306.1" font-family="Times,serif" font-size="14.00"> </text>
<path fill="none" stroke="black" d="M672.5,-330.9C749.82,-330.9 765.1,-280.56 833.94,-273.68" class="hover-path"></path></g>
<!-- 4 -->
<g id="4" class="node" data-path="/home/xazker/Desktop/CyTRIM/pytrim/estop.py">

<rect x="835" y="-454.70001220703125" width="262" height="99.4000244140625"></rect>
<g id="4_3" class="title">
<text text-anchor="start" x="882.41" y="-422.3" font-family="Arial" font-size="16.00"> &#160;&#160;&#160;&#160;&#160;&#160;&#160;&#160;&#160;&#160;&#160;estop.py &#160;&#160;&#160;&#160;&#160;&#160;&#160;&#160;&#160;&#160;&#160;</text>

</g>
<g id="4:33_4" data-kind="12" class="cell function">
<rect x="851" y="-403.5" width="230" height="27.20001220703125"></rect>
<text text-anchor="start" x="947.32" y="-385.1" font-family="Arial" font-size="16.00">eloss</text>

</g>
</g>
<!-- 1&#45;&gt;4 -->
<g id="1:26_4-4:33_4" class="edge" data-from="1:26_4" data-to="4:33_4">

<path fill="none" stroke="black" d="M672.5,-330.9C749.95,-330.9 765,-382.11 833.91,-389.11"></path>
<polygon fill="black" stroke="black" points="833.25,-394.33 848.49,-389.83 833.76,-383.85 833.25,-394.33"></polygon>
<text text-anchor="middle" x="761.25" y="-364.6" font-family="Times,serif" font-size="14.00"> </text>
<path fill="none" stroke="black" d="M672.5,-330.9C749.95,-330.9 765,-382.11 833.91,-389.11" class="hover-path"></path></g>
<!-- 3 -->
<g id="3" class="node" data-path="/home/xazker/Desktop/CyTRIM/pytrim/select_recoil.py">

<rect x="835" y="-571.7000122070312" width="262" height="99.4000244140625"></rect>
<g id="3_4" class="title">
<text text-anchor="start" x="857.52" y="-539.3" font-family="Arial" font-size="16.00"> &#160;&#160;&#160;&#160;&#160;&#160;&#160;&#160;&#160;&#160;&#160;select_recoil.py &#160;&#160;&#160;&#160;&#160;&#160;&#160;&#160;&#160;&#160;&#160;</text>

</g>
<g id="3:30_4" data-kind="12" class="cell function">
<rect x="851" y="-520.5" width="230" height="27.20001220703125"></rect>
<text text-anchor="start" x="899.29" y="-502.1" font-family="Arial" font-size="16.00">get_recoil_position</text>

</g>
</g>
<!-- 1&#45;&gt;3 -->
<g id="1:26_4-3:30_4" class="edge" data-from="1:26_4" data-to="3:30_4">

<path fill="none" stroke="black" d="M672.5,-330.9C777.74,-330.9 743.18,-488.83 833.68,-505.48"></path>
<polygon fill="black" stroke="black" points="833.09,-510.7 848.49,-506.77 834,-500.24 833.09,-510.7"></polygon>
<text text-anchor="middle" x="761.25" y="-423.1" font-family="Times,serif" font-size="14.00"> </text>
<path fill="none" stroke="black" d="M672.5,-330.9C777.74,-330.9 743.18,-488.83 833.68,-505.48" class="hover-path"></path></g>
<!-- 6&#45;&gt;6 -->
<g id="6:84_4-6:55_4" class="edge" data-from="6:84_4" data-to="6:55_4">

<path fill="none" stroke="black" d="M851.03,-115.14C789.11,-115.7 732.62,-122.07 732.62,-138.1 732.62,-152.72 779.62,-159.3 834.86,-160.78"></path>
<polygon fill="black" stroke="black" points="834.42,-166.02 849.52,-161.03 834.61,-155.52 834.42,-166.02"></polygon>
<text text-anchor="middle" x="730.88" y="-113.8" font-family="Times,serif" font-size="14.00"> </text>
<path fill="none" stroke="black" d="M851.03,-115.14C789.11,-115.7 732.62,-122.07 732.62,-138.1 732.62,-152.72 779.62,-159.3 834.86,-160.78" class="hover-path"></path></g>
<!-- 6&#45;&gt;6 -->
<g id="6:127_4-6:84_4" class="edge" data-from="6:127_4" data-to="6:84_4">

<path fill="none" stroke="black" d="M851.03,-79.94C789.11,-80.5 732.62,-86.87 732.62,-102.9 732.62,-117.52 779.62,-124.1 834.86,-125.58"></path>
<polygon fill="black" stroke="black" points="834.42,-130.82 849.52,-125.83 834.61,-120.32 834.42,-130.82"></polygon>
<text text-anchor="middle" x="730.88" y="-113.8" font-family="Times,serif" font-size="14.00"> </text>
<path fill="none" stroke="black" d="M851.03,-79.94C789.11,-80.5 732.62,-86.87 732.62,-102.9 732.62,-117.52 779.62,-124.1 834.86,-125.58" class="hover-path"></path></g>
<!-- 6&#45;&gt;6 -->
<g id="6:127_4-6:55_4" class="edge" data-from="6:127_4" data-to="6:55_4">

<path fill="none" stroke="black" d="M851.03,-81.04C789.11,-83.28 732.62,-93.87 732.62,-120.5 732.62,-144.79 779.62,-155.73 834.86,-159.17"></path>
<polygon fill="black" stroke="black" points="834.28,-164.39 849.52,-159.88 834.79,-153.91 834.28,-164.39"></polygon>
<text text-anchor="middle" x="730.88" y="-113.8" font-family="Times,serif" font-size="14.00"> </text>
<path fill="none" stroke="black" d="M851.03,-81.04C789.11,-83.28 732.62,-93.87 732.62,-120.5 732.62,-144.79 779.62,-155.73 834.86,-159.17" class="hover-path"></path></g>
<!-- 6&#45;&gt;6 -->
<g id="6:159_4-6:127_4" class="edge" data-from="6:159_4" data-to="6:127_4">

<path fill="none" stroke="black" d="M851.03,-44.74C789.11,-45.3 732.62,-51.67 732.62,-67.7 732.62,-82.32 779.62,-88.9 834.86,-90.38"></path>
<polygon fill="black" stroke="black" points="834.42,-95.62 849.52,-90.63 834.61,-85.12 834.42,-95.62"></polygon>
<text text-anchor="middle" x="730.88" y="-113.8" font-family="Times,serif" font-size="14.00"> </text>
<path fill="none" stroke="black" d="M851.03,-44.74C789.11,-45.3 732.62,-51.67 732.62,-67.7 732.62,-82.32 779.62,-88.9 834.86,-90.38" class="hover-path"></path></g>
<!-- 2 -->
<g id="2" class="node" data-path="/home/xazker/Desktop/CyTRIM/pytrim/pytrim.py">

<rect x="16" y="-395.70001220703125" width="262" height="99.4000244140625"></rect>
<g id="2_5" class="title">
<text text-anchor="start" x="61.21" y="-363.3" font-family="Arial" font-size="16.00"> &#160;&#160;&#160;&#160;&#160;&#160;&#160;&#160;&#160;&#160;&#160;pytrim.py &#160;&#160;&#160;&#160;&#160;&#160;&#160;&#160;&#160;&#160;&#160;</text>

</g>
<g id="2:48_4" data-kind="12" class="cell function">
<rect x="32" y="-344.5" width="230" height="27.20001220703125"></rect>
<text text-anchor="start" x="117.21" y="-326.1" font-family="Arial" font-size="16.00">simulate</text>

</g>
</g>
<!-- 2&#45;&gt;1 -->
<g id="2:48_4-1:26_4" class="edge" data-from="2:48_4" data-to="1:26_4">

<path fill="none" stroke="black" d="M263,-330.9C336.19,-330.9 358.45,-330.9 424.28,-330.9"></path>
<polygon fill="black" stroke="black" points="423.99,-336.15 438.99,-330.9 423.99,-325.65 423.99,-336.15"></polygon>
<text text-anchor="middle" x="351.75" y="-335.1" font-family="Times,serif" font-size="14.00"> </text>
<path fill="none" stroke="black" d="M263,-330.9C336.19,-330.9 358.45,-330.9 424.28,-330.9" class="hover-path"></path></g>
<g id="faded-group"></g></g>
<defs><filter id="shadow"><feDropShadow dx="0" dy="0" stdDeviation="4" flood-opacity="0.5"></feDropShadow></filter>
    <linearGradient id="highlightGradient">
      <stop offset="0%" stop-color="var(--edge-incoming-color)"></stop>
      <stop offset="100%" stop-color="var(--edge-outgoing-color)"></stop>
    </linearGradient></defs>
</svg>